<svg xmlns="http://www.w3.org/2000/svg" width="128" height="128" viewBox="0 0 128 128">
    <title>Apple Inc.</title>
    <path d="M97.9 67.9c.2 18.78 16.5 25.03 16.7 25.1-.14.44-2.6 8.92-8.6 17.67-5.18 7.56-10.55 15.1-19.02 15.26-8.3.15-11-4.94-20.5-4.94s-12.48 4.76-20.35 5.1c-8.17.3-14.4-8.2-19.6-15.75C15.8 94.95 7.66 66.78 18.6 47.8c5.43-9.45 15.15-15.43 25.7-15.58 8.03-.15 15.6 5.4 20.5 5.4s14.1-6.68 23.8-5.7c4.04.17 15.4 1.64 22.7 12.33-.58.36-13.56 7.92-13.4 23.64M82.26 21.7c4.34-5.25 7.26-12.56 6.46-19.84-6.25.25-13.8 4.17-18.3 9.42-4.02 4.65-7.54 12.1-6.6 19.22 6.98.54 14.1-3.55 18.44-8.8" fill="#000"/>
</svg>
