<svg xmlns="http://www.w3.org/2000/svg" width="128" height="128" viewBox="0 0 128 128">
    <title>Safari</title>
    <style type="text/css">
        .s2 {
            stroke: #DDD;
            stroke-width: 1.3036;
            stroke-linecap: round;
        }
    </style>
    <linearGradient id="ID_4" gradientUnits="userSpaceOnUse" x1="435.5792" y1="-228.664" x2="435.5792" y2="-228.7943" gradientTransform="matrix(960 0 0 -960 -418092 -219516)">
        <stop offset="0" style="stop-color:#F8F8F8"/>
        <stop offset="1" style="stop-color:#CCC"/>
    </linearGradient>
    <circle fill="url(#ID_4)" cx="64" cy="64" r="62.6"/>
    <radialGradient id="ID_5" cx="435.4955" cy="-228.75" r="6.517816e-02" fx="435.4955" fy="-228.7526" gradientTransform="matrix(880 0 0 -880 -383172 -201236)" gradientUnits="userSpaceOnUse">
        <stop offset="0" style="stop-color:#00F0FF"/>
        <stop offset="1" style="stop-color:#0070E0"/>
    </radialGradient>
    <circle fill="url(#ID_5)" cx="64" cy="64" r="57.4"/>
    <path class="s2" d="M14.4,43.4l8.4,3.5 M113.6,84.6l-8.4-3.5 M16.7,38.6l3.4,1.8 M111.3,89.4l-3.4-1.8"/>
    <path class="s2" d="M43.4,113.6l3.5-8.4 M84.6,14.4l-3.5,8.4 M38.6,111.3l1.8-3.4 M89.4,16.7l-1.8,3.4"/>
    <path class="s2" d="M14.4,84.5l8.4-3.5 M113.6,43.5l-8.4,3.5 M12.6,79.5l3.7-1.1 M115.4,48.5l-3.7,1.1"/>
    <path class="s2" d="M84.5,113.6l-3.5-8.4 M43.5,14.4l3.5,8.4 M79.5,115.4l-1.1-3.7 M48.5,12.6l1.1,3.7"/>
    <path class="s2" d="M53.3,116.6l1.8-8.9 M74.7,11.4l-1.8,8.9 M48.2,115.3l1.2-3.7 M79.8,12.7l-1.2,3.7"/>
    <path class="s2" d="M116.6,74.7l-8.9-1.8 M11.4,53.3l8.9,1.8 M115.3,79.8l-3.7-1.2 M12.7,48.2l3.7,1.2"/>
    <path class="s2" d="M93.7,108.8l-5-7.6 M34.3,19.2l5,7.6 M89.1,111.5l-1.8-3.5 M38.9,16.5l1.8,3.5"/>
    <path class="s2" d="M108.8,34.3l-7.6,5 M19.2,93.7l7.6-5 M111.5,38.9l-3.5,1.8 M16.5,89.1l3.5-1.8"/>
    <path class="s2" d="M25.9,26.1l6.5,6.4 M102.1,101.9l-6.5-6.4 M29.8,22.6l2.5,3 M98.2,105.4l-2.5-3"/>
    <path class="s2" d="M26.1,102.1l6.4-6.5 M101.9,25.9l-6.4,6.5 M22.6,98.2l3-2.5 M105.4,29.8l-3,2.5"/>
    <path class="s2" d="M10.3,64.2l9.1,0 M117.7,63.8l-9.1,0 M10.5,58.9l3.9,0.4 M117.5,69.1l-3.9-0.4"/>
    <path class="s2" d="M64.2,117.7l0-9.1 M63.8,10.3l0,9.1 M58.9,117.5l0.4-3.9 M69.1,10.5l-0.4,3.9"/>
    <path class="s2" d="M34.2,108.7l5.1-7.6 M93.8,19.3l-5.1,7.6 M29.9,105.5l2.5-3 M98.1,22.5l-2.5,3"/>
    <path class="s2" d="M108.7,93.8l-7.6-5.1 M19.3,34.2l7.6,5.1 M105.5,98.1l-3-2.5 M22.5,29.9l3,2.5"/>
    <path class="s2" d="M74.5,116.7l-1.8-8.9 M53.5,11.3l1.8,8.9 M69.3,117.4l-0.4-3.9 M58.7,10.6l0.4,3.9"/>
    <path class="s2" d="M116.7,53.5l-8.9,1.8 M11.3,74.5l8.9-1.8 M117.4,58.7l-3.9,0.4 M10.6,69.3l3.9-0.4"/>
    <path fill="#DDD" d="M24.6,103.4l33.6-45.1L64,64"/>
    <path fill="#E44" d="M58.3,58.3l45.1-33.6L64,64"/>
    <path fill="#C00" d="M103.4,24.6L69.7,69.7L64,64"/>
    <path fill="#AAA" d="M24.6,103.4l45.1-33.6L64,64"/>
</svg>
