<svg xmlns="http://www.w3.org/2000/svg" width="128" height="128" viewBox="0 0 128 128">
    <title>Less</title>
    <path fill="#2A4D80" fill-rule="evenodd" d="M122.3 58.635c-.6-1.3-.89-2.836-.95-4.283-.155-3.56-.024-7.135-.185-10.696-.144-3.19-1.282-6.063-4.344-7.707-2.69-1.45-5.82-1.6-8.82-1.63v5.69c1 .03.76.06 1 .08 4.03.19 5.38 1.47 5.43 5.47.04 2.97.01 5.94.06 8.91.06 3.6.6 7.04 3.9 9.32.06.04.05.18.09.34-1.68 1.19-3 2.73-3.39 4.82-.31 1.69-.48 3.43-.54 5.15-.09 3.12.01 6.24-.08 9.36-.07 2.44-1.22 3.59-3.6 4.13-.89.21-1.84.28-2.84.41v5.68c2-.12 3.02-.2 4.39-.35 5.16-.56 8.06-3.24 8.66-8.24.19-1.57.17-3.16.2-4.75.07-2.97.03-5.95.3-8.9.27-3.01 2.46-4.67 5.46-4.51V61c-2 .358-3.84-.507-4.7-2.366zM28.315 70.768c0-11.55-.314-23.098-.314-34.646v-1.817c-3 0-6.22-.03-9.39.014-1.28.01-2.42.12-3.69.3-4.87.66-7.23 2.95-8.09 7.81-.25 1.4-.2 2.86-.22 4.29-.04 2.72.04 5.45 0 8.18-.05 3.43-1.67 6.09-5.17 6.29-.12 0 .58.15-.42.23v5.3c4 .63 5.28 2.24 5.54 5.96.04.59.06 1.19.06 1.78.04 3.32 0 6.64.15 9.96.14 3.09.83 5.85 3.75 7.48 2.73 1.51 6.5 1.64 8.5 1.71v-5.66c0-.05-.21-.1-.4-.11-4.34-.27-5.31-1.448-5.34-5.79-.01-2.874.11-5.75.06-8.624-.05-3.61-.58-7.04-3.85-9.324-.05-.04 0-.19-.013-.39 2.193-1.39 3.36-3.517 3.68-6.095.176-1.424.235-2.866.26-4.3.05-2.974 0-5.95.08-8.92.056-2.09 1.39-3.61 3.09-3.95 1.613-.326 2.45-.316 5.45-.466v2.06c0 10.31-.37 20.62-.316 30.93.02 3.53.41 7.01 4.195 8.535 2.06.83 4.264 1.083 6.63 1.64.393-2.31.52-4.23.845-6.127-4.36-1.25-5.04-1.9-5.04-6.29zM54.99 50.875c-7.34-3.51-16.25-.44-19.667 6.92-2.574 5.545-2.482 11.25-.216 16.873 1.23 3.048 3.45 5.33 6.473 6.672 5.903 2.62 11.878 1.984 17.83.144.322-.1.732-.718.693-1.046-.203-1.66-.54-3.306-.84-5.02-1.418.356-2.602.72-3.812.948-3.19.6-6.4.6-9.51-.637-3.07-1.22-5.13-4.73-4.62-7.73h20.87c.26-3 .16-7.13-1.12-10.54-1.14-3.05-3.11-5.17-6.08-6.59zM54.943 63H41.228c.007-4 3.264-7.59 7.537-7.508 3.753.072 6.35 3.508 6.18 7.508zm56.108 12.28c.5-5.055-1.03-7.9-5.53-10.095-1.59-.78-3.29-1.356-4.91-2.078-1.21-.54-2.44-1.087-3.58-1.77-1.1-.666-1.57-1.77-1.4-3.063.16-1.277.98-2.12 2.17-2.36 1.44-.29 2.95-.54 4.39-.423 2.04.17 4.06.69 6.17 1.08l1.33-5.82c-2.85-.43-5.51-.99-8.19-1.2-2.99-.23-5.892.26-8.63 1.67-5.78 2.98-5.88 12.12-.57 15.12 1.583.9 3.28 1.6 4.93 2.38 1.736.83 3.536 1.55 5.2 2.51 1.26.73 1.71 2 1.373 3.48-.31 1.38-1.35 1.99-2.574 2.11-1.86.18-3.767.35-5.61.13-2.215-.26-4.385-.94-6.656-1.45l-1.16 5.79c5.334 2 10.61 2.33 15.94 1.15 4.458-.99 6.998-3.6 7.34-7.13zm-28.41-9.453c-1.96-1.04-4.06-1.797-6.08-2.723-1.26-.575-2.58-1.074-3.69-1.87-2.13-1.534-1.73-4.473.75-5.26 1.42-.45 3.03-.59 4.52-.48 2.04.154 4.04.68 6.17 1.064l1.26-5.546c-1.07-.293-2.05-.612-3.05-.822-3.97-.836-7.96-1.16-11.87.215-3.36 1.182-5.69 3.392-6.15 7.11-.52 4.152.86 7.43 4.7 9.402 1.534.79 3.18 1.363 4.746 2.095 1.564.73 3.16 1.427 4.614 2.343 1.11.7 1.55 1.885 1.233 3.255-.31 1.358-1.3 2.042-2.53 2.17-1.86.19-3.77.367-5.61.152-2.223-.26-4.4-.935-6.71-1.455-.34 1.613-.74 3.238-.99 4.885-.055.358.344 1.046.68 1.163 5.384 1.866 10.864 2.134 16.34.52 3.27-.96 5.56-3.05 6.02-6.622.52-4.055-.446-7.544-4.318-9.596z" clip-rule="evenodd"/>
</svg>
