<svg xmlns="http://www.w3.org/2000/svg" width="128" height="128" viewBox="0 0 128 128">
    <title>Node.js</title>
    <path fill="#83CD29" d="M112.77 30.33l-44.1-25.6c-2.78-1.6-6.4-1.6-9.2 0L14.9 30.33C12.03 32 10 35.1 10 38.4v51.15c0 3.32 2.08 6.42 4.95 8.08l11.78 6.7c5.63 2.76 7.62 2.76 10.18 2.76 8.37 0 13.1-5.08 13.1-13.87v-50.5c0-.7-.34-1.76-1.04-1.76H43.3c-.7 0-2.3 1.05-2.3 1.76v50.5c0 3.9-3.52 7.77-10.1 4.47l-12.18-7c-.42-.23-.72-.7-.72-1.2V38.4c0-.47.56-.96.98-1.2L63.4 11.6c.42-.23 1.03-.23 1.45 0l43.88 25.56c.42.24.27.7.27 1.2V89.5c0 .5.18.97-.23 1.2l-44.1 25.58c-.37.23-.84.23-1.25 0l-11.3-6.75c-.35-.2-.75-.26-1.08-.08-3.15 1.77-3.73 2-6.68 3.03-.72.25-1.8.7.4 1.93l14.8 8.77c1.43.83 3.04 1.26 4.66 1.26 1.64 0 3.25-.43 4.67-1.25l43.84-25.58c2.87-1.68 4.23-4.77 4.23-8.1V38.4c0-3.3-1.37-6.4-4.24-8.07zM77.9 81.43c-11.72 0-14.3-3.22-15.16-9.05-.1-.63-.63-1.38-1.27-1.38h-5.73c-.7 0-1.28.86-1.28 1.57 0 7.46 4.06 16.5 23.45 16.5 14.08 0 22.1-5.45 22.1-15.1 0-9.57-6.44-12.1-20.05-13.9-13.77-1.8-15.16-2.73-15.16-5.95 0-2.66 1.17-6.2 11.36-6.2 9.1 0 12.46 1.95 13.84 8.1.1.57.64.98 1.23.98H97c.34 0 .7-.14.93-.4.25-.27.37-.6.34-.98-.9-10.56-7.9-15.5-22.1-15.5-12.64 0-20.18 5.35-20.18 14.3 0 9.68 7.5 12.36 19.6 13.56 14.5 1.43 15.62 3.55 15.62 6.4 0 4.95-3.98 7.06-13.3 7.06z"/>
</svg>
