<svg xmlns="http://www.w3.org/2000/svg" width="128" height="128" viewBox="0 0 128 128">
    <title>JavaScript</title>
    <path fill="#F0DB4F" d="M1.4 1.4h125.2v125.2H1.4z"/>
    <path fill="#323330" d="M116.35 96.74c-.92-5.7-4.64-10.5-15.68-14.98-3.83-1.77-8.1-3.03-9.37-5.93-.45-1.7-.5-2.64-.23-3.67.82-3.32 4.8-4.35 7.93-3.4 2.02.68 3.94 2.24 5.1 4.72 5.4-3.5 5.38-3.47 9.15-5.87-1.38-2.1-2.1-3.1-3.02-4-3.25-3.6-7.68-5.5-14.76-5.3l-3.68.5c-3.6.9-7 2.78-8.9 5.27-6 6.7-4.3 18.5 2.9 23.33 7.1 5.33 17.5 6.55 18.9 11.53 1.3 6.1-4.5 8.1-10.3 7.4-4.23-.9-6.6-3.04-9.13-6.96-4.7 2.74-4.7 2.74-9.5 5.5 1.13 2.5 2.33 3.64 4.25 5.8 9.07 9.2 31.76 8.75 35.83-5.17.16-.5 1.26-3.7.4-8.6zm-46.9-37.8h-11.7l-.05 30.28c0 6.43.34 12.34-.7 14.14-1.72 3.56-6.16 3.12-8.18 2.43-2.06-1.1-3.1-2.5-4.32-4.5-.34-.6-.6-1.1-.67-1.1L34.3 106c1.6 3.24 3.97 6.06 6.9 7.9 4.5 2.67 10.5 3.5 16.8 2.06 4.07-1.2 7.6-3.66 9.44-7.4 2.67-4.9 2.1-10.87 2.07-17.45.1-10.7 0-21.4 0-32.2z"/>
</svg>
