<svg xmlns="http://www.w3.org/2000/svg" width="128" height="128" viewBox="0 0 128 128">
    <title>Ember</title>
    <path fill="#DE4025" d="M126.9 74.9c0-.8-.6-1.5-1.4-1.5-.2 0-.5 0-.7.2 0 0-3.1 2.4-5.8 2.1s-1.8-6.3-1.8-6.3.6-5.5-1-6-3.5 1.4-3.5 1.4c-1.6 1.8-2.8 3.9-3.6 6.1l-.3.1s.4-6-.1-7.4c-.3-.7-3.2-.6-3.7.6s-2.8 9.7-3 13.2c0 0-4.5 3.9-8.5 4.5s-4.9-1.8-4.9-1.8 10.8-3 10.4-11.6-8.7-5.4-9.6-4.7c-.9.7-5.8 3.6-7.2 11.7-.1.2-.2 1.5-.2 1.5-2 1.4-4.2 2.6-6.5 3.5 0 0 6.5-11-1.4-16-3.6-2.2-6.5 2.4-6.5 2.4S78.4 55 76 44.9c-1.1-4.8-3.5-5.3-5.7-4.5-1.8.6-3.4 1.8-4.6 3.3-2.9 4.7-4.8 10.1-5.3 15.6-1 9.4-2.5 20.7-2.5 20.7s-2.1 2-4 2.1-1.1-5.7-1.1-5.7 1.5-8.8 1.4-10.2-.2-2.3-2-2.8-3.7 1.7-3.7 1.7-5 7.6-5.4 8.8l-.3.5-.2-.4s3.5-10.4.2-10.5-5.6 3.7-5.6 3.7-3.9 6.4-4 7.2l-.3-.4s1.6-7.5 1.3-9.3c-.1-.9-.9-1.6-1.9-1.5h-.2s-2.2-.3-2.8 1.2c-1.3 4.6-2.3 9.2-3 13.9 0 0-5.5 4-9.2 4S13.9 80 13.9 80s13.4-4.6 9.7-13.6c-1.4-2.1-3.8-3.3-6.2-3-2.7 0-6 1.7-8.1 6.6-.8 2-1.3 4.1-1.5 6.2 0 0-2.4.5-3.7-.6s-2 0-2 0-2.2 2.7 0 3.6c1.8.6 3.6 1 5.5 1.2.5 2.4 1.9 4.5 3.9 6 4 3 11.6-.3 11.6-.3l3.1-1.7s.1 2.9 2.4 3.3 3.2 0 7.2-9.6c2.3-4.9 2.5-4.7 2.5-4.7l.3-.1s-1.8 9.4-1.1 11.9 3.7 2.3 3.7 2.3 1.6.3 3-4.4c1-3.4 2.3-6.6 3.9-9.8h.3s-1.2 9.7.5 12.7 6.1 1.1 6.1 1.1c1.2-.6 2.4-1.3 3.5-2 2.5 1.9 5.6 2.8 8.8 2.5 11.5-2.3 15.6-5.3 15.6-5.3 1.5 3.2 4.6 5.3 8.1 5.5 4 .4 7.9-1 10.8-3.9 0 0-.1 2.8 2.4 3.9s4.1-4.7 4.1-4.7l4.1-11.3h.4s.2 7.3 4.2 8.5 9.2-2.7 9.2-2.7c.5-.6 1-1.7.7-2.7zm-113.7 1c.2-6.3 4.3-9 5.7-7.7s.9 4.3-1.8 6.2-3.9 1.5-3.9 1.5zm53.7-24.4s3.8-9.8 4.7-5-7.9 18.9-7.9 18.9c.1-3.1 3.2-13.9 3.2-13.9zm4.5 27.3c-2.5 6.5-8.5 3.9-8.5 3.9s-.7-2.3 1.3-8.8c2-6.5 6.6-4 6.6-4s3.1 2.3.6 8.9zM88 75.9s-.6-2.1 1.6-6 3.9-1.8 3.9-1.8 1.8 2-.3 5c-1.2 1.7-3.1 2.8-5.2 2.8z"/>
</svg>
