<svg xmlns="http://www.w3.org/2000/svg" width="128" height="128" viewBox="0 0 128 128">
    <title>jQuery</title>
    <path fill="#0868AC" d="M9.63 32.18C-1.4 48.03-.04 68.66 8.38 85.5l.6 1.2.4.76.25.44.44.78c.25.46.52.92.8 1.38l.45.76c.3.5.62.97.94 1.46l.38.6c.44.67.9 1.32 1.36 1.96l.04.05.22.3 1.23 1.6.4.6 1.1 1.4.4.5c.5.6 1 1.2 1.6 1.8l1.6 1.7.5.5c.4.4.8.8 1.3 1.2l.5.5c.6.5 1.1 1.1 1.7 1.6h.03l.3.22c.5.46 1.05.9 1.6 1.36l.65.5 1.34 1.05.7.54 1.5 1.07.6.4.13.1c.46.35.95.67 1.44 1l.62.4c.73.5 1.5.94 2.26 1.4l.63.34 1.7.98.97.5 1.23.62.3.1.5.26 1.93.9.4.16c.72.35 1.5.66 2.24.96l.56.2c.7.3 1.4.56 2.1.8l.27.1 2.4.8.6.2c.8.23 1.6.52 2.47.7C107.5 132 123 90.23 123 90.23c-13 16.93-36.1 21.4-58 16.43-.86-.2-1.66-.5-2.47-.7l-.6-.2c-.8-.26-1.6-.5-2.4-.78l-.3-.16c-.7-.25-1.4-.5-2.1-.77l-.6-.27-2.2-.9-.4-.2-1.9-.9-.55-.26-1.46-.77-1-.5c-.6-.3-1.16-.65-1.74-1l-.6-.3-2.3-1.4-.6-.4c-.54-.4-1.1-.7-1.62-1.1l-.5-.37c-.5-.4-1-.76-1.52-1.13l-.66-.5-1.4-1.1-.6-.5c-.6-.46-1.16-.94-1.73-1.43l-.2-.16-1.8-1.63-.5-.5c-.47-.4-.9-.85-1.3-1.3l-.5-.5c-.6-.55-1.1-1.12-1.6-1.7l-.1-.07c-.57-.6-1.1-1.26-1.6-1.9l-.46-.5c-.4-.44-.8-.93-1.2-1.4l-.46-.5-1.3-1.8c-12-16.4-16.4-39.24-6.7-58m25.6-2.47c-7.94 11.5-7.5 26.9-1.3 39 1.05 2.03 2.2 4 3.54 5.9 1.2 1.7 2.53 3.74 4.1 5.1.6.65 1.2 1.3 1.8 1.9l.5.5 1.8 1.7.1.02v.1l2.14 1.8.4.37c.7.6 1.43 1.1 2.2 1.65l.05.07 1 .68.45.3c.54.4 1.1.7 1.65 1.1l.3.12 1.5.8.5.3 1 .54.14.07c.7.37 1.4.7 2.16 1l.5.2c.6.26 1.14.5 1.73.7l.72.3c.5.2 1 .37 1.6.56l.7.2c.74.23 1.5.53 2.3.66 41.2 6.8 50.7-24.9 50.7-24.9-8.5 12.3-25.1 18.2-42.85 13.6-.76-.2-1.54-.44-2.3-.68l-.7-.25-1.6-.5-.7-.28-1.77-.7-.46-.2-2.16-1-1.02-.6-.6-.3c-.47-.25-.9-.5-1.37-.8l-.3-.2c-.54-.3-1.1-.64-1.63-1l-.5-.3-1.1-.7c-.77-.54-1.5-1.1-2.23-1.64l-.5-.4c-7.7-6.13-13.84-14.5-16.77-24-3.07-9.82-2.4-20.87 2.9-29.83m22.23-.8c-4.7 6.9-5.2 15.5-1.9 23.1C74 40 81.1 46.4 89.3 49.4l1 .33.45.14c.5.16 1 .33 1.5.43 22.7 4.4 28.9-11.68 30.5-14.04-5.4 7.75-14.45 9.6-25.6 6.9-.86-.2-1.83-.5-2.7-.8-1.06-.4-2.13-.84-3.2-1.34-1.95-.95-3.84-2.1-5.6-3.43C75.7 30 69.5 15.6 76 3.8"/>
</svg>
