<svg xmlns="http://www.w3.org/2000/svg" width="128" height="128" viewBox="0 0 128 128">
    <title>Sass</title>
    <path fill="#CB6699" fill-rule="evenodd" d="M1.22 56.156c0 .703.206 1.167.322 1.618.756 2.933 2.38 5.45 4.31 7.746 2.745 3.272 6.108 5.906 9.553 8.383 2.988 2.148 6.037 4.248 9.037 6.38.515.366 1.002.787 1.56 1.236-.48.26-.88.48-1.296.7-3.96 2-7.768 4.25-11.28 6.98-2.115 1.64-4.16 3.39-5.606 5.67-2.325 3.67-3.148 7.58-1.415 11.76.506 1.22 1.278 2.27 2.367 3.05.353.25.75.5 1.162.6 1.058.25 2.136.41 3.207.61l3.04-.01c3.36-.3 6.41-1.45 9.17-3.35 4.32-2.98 7.22-6.97 8.47-12.09.91-3.72.95-7.45-.12-11.16-.1-.35-.22-.68-.35-1.02-.13-.33-.28-.66-.46-1.07l6.88-3.96.11.09c-.12.41-.26.81-.37 1.23-.82 2.98-1.36 6.02-1.16 9.11.21 3.3 1.13 6.39 3.06 9.14 1.57 2.23 5.29 2.31 6.95.072.59-.79 1.16-1.623 1.59-2.51 1.12-2.32 2.16-4.67 3.23-7.01l.19-.43c-.07 1.11-.16 2.08-.2 3.05-.063 1.52.026 3.03.546 4.48.45 1.24 1.21 2.16 2.62 2.326.97.11 1.75-.33 2.46-.895 1.118-.88 2.02-1.96 2.69-3.2 1.9-3.49 3.858-6.96 5.58-10.54 1.87-3.87 3.5-7.85 5.23-11.79l.286-.7c.406 1.61.69 3.185 1.216 4.675.61 1.73 1.368 3.42 2.19 5.06.39.777.345 1.28-.194 1.93-2.256 2.72-4.473 5.47-6.69 8.22-.49.61-.98 1.227-1.39 1.89-.25.4-.41.895-.48 1.365-.13.897.42 1.763 1.38 1.97.88.19 1.817.26 2.71.193 3.1-.23 5.91-1.314 8.395-3.16 3.22-2.38 4.256-5.64 3.476-9.5-.21-1.043-.583-2.06-.946-3.07-.165-.454-.176-.773.12-1.2 2.57-3.674 4.77-7.575 6.82-11.57.08-.153.16-.31.303-.48.66 3.45 1.66 6.777 3.45 9.79-.914.88-1.82 1.68-2.634 2.56-1.8 1.932-3.36 4.032-4.175 6.593-.35 1.105-.62 2.227-.46 3.406.24 1.83 1.74 3.02 3.544 2.606 3.852-.895 7.18-2.71 9.61-5.93 1.635-2.162 1.784-4.58 1.1-7.11-.19-.686-.41-1.363-.65-2.152.95-.29 1.876-.65 2.835-.864 4.98-1.14 9.907-.94 14.705.86 2.8 1.05 5.067 2.803 6.41 5.57 1.64 3.38.736 6.582-2.45 8.72-.294.2-.634.353-.88.602-.15.153-.24.46-.205.67.02.123.343.28.53.275 1.045-.01 1.894-.56 2.71-1.12 2.04-1.416 3.53-3.317 3.852-5.82l.063-.188-.077-1.63c-.03-.097.024-.19.02-.26-.435-3.646-2.38-6.47-5.21-8.69-3.28-2.567-7.157-3.62-11.25-3.79-3.34-.136-6.62.36-9.768 1.503-.896.32-1.785.71-2.69 1.07-.12-.22-.25-.43-.355-.65-.928-1.896-2.05-3.71-2.298-5.88-.18-1.546-.393-3.09-.026-4.615.35-1.47.81-2.91 1.25-4.36.22-.743.06-1.16-.65-1.5-.25-.114-.52-.22-.785-.255-1.75-.256-3.48-.11-5.17.38-.6.177-1.04.51-1.17 1.177-.08.38-.23.75-.34 1.12-.44 1.57-.76 3.16-1.47 4.65-1.8 3.736-3.846 7.33-5.94 10.9-.23.384-.47.76-.75 1.23-.74-1.54-1.52-2.92-1.76-4.54-.27-1.83-.48-3.66-.03-5.48.34-1.36.785-2.69 1.19-4.03.196-.64.107-.97-.47-1.31-.29-.17-.62-.32-.95-.37-1.812-.27-3.6-.13-5.35.44-.54.175-.826.526-.99 1.086-.49 1.65-.905 3.34-1.59 4.91-2.774 6.36-5.63 12.69-8.48 19.016-.6 1.32-1.296 2.6-1.967 3.882-.17.33-.42.616-.63.92-.17-.2-.235-.34-.234-.473.01-.82-.09-1.65.067-2.44.47-2.38 1.01-4.74 1.575-7.1.47-1.945 1.02-3.87 1.54-5.806.18-.65.18-1.255-.28-1.8-.78-.91-2.41-1.11-3.38-.41l-.43.24.083-.69c.2-1.48.243-2.95-.16-4.41-.51-1.81-1.805-2.86-3.69-2.8-.88.03-1.8.18-2.613.5-3.42 1.34-6.045 3.71-8.28 6.566-.21.26-.47.5-.76.66-2.89 1.6-5.797 3.19-8.698 4.78L30.58 79c-.865-.828-1.65-1.685-2.545-2.41-2.73-2.22-5.5-4.39-8.25-6.59-2.43-1.95-4.79-3.98-6.59-6.56-1.34-1.92-2.204-4.02-2.29-6.394-.102-3.024.756-5.79 2.296-8.36 1.97-3.293 4.66-5.935 7.61-8.328 3.13-2.53 6.51-4.678 10.01-6.64 4.9-2.742 9.94-5.17 15.35-6.773 5.54-1.645 11.17-2.586 16.97-1.93 2.28.26 4.5.78 6.53 1.895 1.56.854 2.84 1.97 3.43 3.717.59 1.718.57 3.46.16 5.204-.82 3.54-2.76 6.45-5.19 9.05-3.99 4.27-8.86 7.18-14.35 9.09-3.16 1.11-6.42 1.81-9.76 2.09-2.73.23-5.4-.01-7.98-.96-1.71-.63-3.2-1.59-4.4-2.98-.21-.25-.49-.52-.89-.28-.39.23-.46.61-.33.98.22.63.42 1.28.77 1.84.86 1.41 2.11 2.43 3.48 3.3 2.64 1.68 5.6 2.25 8.66 2.38 4.65.2 9.18-.49 13.66-1.74 6.38-1.78 11.93-4.93 16.38-9.89 3.7-4.13 6.35-8.79 6.92-14.42.276-2.74-.02-5.44-1.31-7.94-1.39-2.71-3.61-4.73-6.26-6.12-3.86-2.02-8.03-3.2-12.33-3.2H56c-5.21 0-10.25 1.49-15.15 3.27-3.707 1.35-7.34 2.94-10.87 4.71-7.683 3.84-14.84 8.47-20.715 14.83C6.34 43 3.86 46.5 2.435 50.62c-.415 1.206-.81 2.5-1.11 3.746m27.84 36.01c-.332 4.46-2.353 8.075-5.656 11-1.86 1.65-3.99 2.82-6.47 3.23-.9.15-1.83.19-2.7-.185-1.25-.53-1.53-1.64-1.55-2.81-.04-1.88.62-3.58 1.52-5.19 1.17-2.1 2.9-3.71 4.74-5.21 2.9-2.36 6.04-4.36 9.27-6.24l.24-.1c.49 1.84.73 3.66.59 5.51zM54.3 70.98c-.234 1.426-.53 2.85-.944 4.23-1.44 4.778-3.286 9.407-5.283 13.974-.37.845-.905 1.616-1.372 2.417-.07.12-.18.23-.28.33-.58.57-1.13.54-1.42-.21-.34-.86-.55-1.79-.73-2.71-.12-.62-.09-1.26-.13-1.9.04-4.49 1.41-8.57 3.74-12.38.96-1.56 2-3.06 3.6-4.05.49-.3 1.04-.55 1.59-.7.85-.24 1.37.16 1.23 1.01zm17.17 21.87l6.17-7.204c.255 2.675-4.29 8.015-6.17 7.203zM91.17 88c-.436.25-.91.43-1.358.662-.41.212-.544-.002-.556-.354-.008-.24.027-.49.093-.72.83-2.94 2.36-5.447 4.64-7.487l.16-.08c1.08 3.04-.17 6.37-2.99 7.98z" clip-rule="evenodd"/>
</svg>
