<svg xmlns="http://www.w3.org/2000/svg" width="128" height="128" viewBox="0 0 128 128">
    <title>Internet Explorer</title>
    <path fill="#1EBBEE" d="M126.1 66.83c0-9.82-2.53-19.03-6.98-27.05C138.1-3.17 98.78 3.13 96.6 3.56 88.27 5.2 80.56 7.8 73.45 11.12c-1.04-.06-2.1-.1-3.16-.1-26.6 0-48.8 18.52-54.5 43.32 14-15.7 23.77-22.02 29.63-24.54-.94.83-1.86 1.67-2.76 2.52l-.88.86c-.6.57-1.2 1.14-1.78 1.72L39 35.93c-.5.53-1.02 1.05-1.53 1.57l-1.05 1.13-1.4 1.5L34 41.3l-1.3 1.5-1 1.2-1.2 1.4-1.02 1.27-1.07 1.36-1 1.3-.93 1.26L25.4 52l-.74 1c-2.2 3-4.22 5.92-6.04 8.8l-1.4 2.2-.06.14c-.46.73-.9 1.45-1.32 2.16l-.04.06c-1.17 1.92-2.2 3.77-3.2 5.5C7.56 81 5.1 87.36 5 87.73c-15.87 56.76 33.68 32.8 40.6 29.2 7.44 3.7 15.82 6 24.7 6C94.55 122.9 115.2 107 122.9 86H93.57c-4.34 7-12.7 12.05-22.3 12.05C57.22 98.05 45.82 87 45.82 74h79.85c.3-2 .46-4.73.46-7.17zm-112.57 50c-3.92-4.03-4.6-13.8 4.03-31.63 4.36 12.54 13.06 23.04 24.3 29.7-5.6 3.1-20.44 10.02-28.33 1.92zM45.7 59c.43-13 11.55-23 25.2-23 13.67 0 24.8 10 25.24 23H45.7zm44.76-44.2c5.17-2.5 17.96-7.77 25.22-2.87 4.8 3.24 8.67 8.34 2.04 25.5-6.35-10.22-15.9-18.23-27.26-22.63z"/>
</svg>
