<svg xmlns="http://www.w3.org/2000/svg" width="128" height="128" viewBox="0 0 128 128">
    <title>WebStorm</title>
    <linearGradient id="ID_1" x1="1116.25" x2="1117.92" y1="-244.97" y2="-238.96" gradientUnits="userSpaceOnUse" gradientTransform="translate(-21755.688 4788.14) scale(19.5312)">
        <stop offset=".28" stop-color="#00CDD7"/>
        <stop offset=".94" stop-color="#2086D7"/>
    </linearGradient>
    <path d="M17.9 114.8L1 14.2l31.5-13L52.4 13l18.5-9.8L109.1 18 87.6 127l-69.7-12.2z" fill="url(#ID_1)"/>
    <linearGradient id="ID_2" x1="1116.77" x2="1119.59" y1="-244.2" y2="-240.06" gradientUnits="userSpaceOnUse" gradientTransform="translate(-21755.688 4788.14) scale(19.5312)">
        <stop offset=".14" stop-color="#FFF045"/>
        <stop offset=".37" stop-color="#00CDD7"/>
    </linearGradient>
    <path d="M127 43.7L110.7 3.5 81.3 1 35.6 44.7l12.2 56.5 23 16L127 83.9l-13.8-25.8L127 43.7z" fill="url(#ID_2)"/>
    <linearGradient id="ID_3" x1="1119.57" x2="1119.94" y1="-243.69" y2="-242.38" gradientUnits="userSpaceOnUse" gradientTransform="translate(-21755.688 4788.14) scale(19.5312)">
        <stop offset=".28" stop-color="#00CDD7"/>
        <stop offset=".94" stop-color="#2086D7"/>
    </linearGradient>
    <path d="M101.8 37.6l11.4 20.5L127 43.7l-10-25-15.2 18.9z" fill="url(#ID_3)"/>
    <path d="M24.6 24.6h78.8v78.8H24.6V24.6z"/>
    <path d="M32.1 88.6h29.5v4.9H32.1v-4.9zm38.6-25.8l4.1-5.1c3 2.4 5.9 3.9 9.7 3.9 3 0 4.7-1.2 4.7-3.2 0-1.8-1.2-2.8-6.5-4.1-6.5-1.8-10.6-3.5-10.6-10v-.2c0-5.9 4.7-9.8 11.2-9.8 4.4 0 8.6 1.4 12 4.1l-3.7 5.5c-2.4-1.9-5.3-3-8.3-3.2-2.6 0-4.1 1.2-4.1 3 0 2.2 1.4 3 6.9 4.3 6.5 1.8 10.2 4.1 10.2 9.8 0 6.5-4.9 10.2-11.8 10.2-5.1 0-9.9-1.9-13.8-5.2m-6.3-28l-4.9 18.9L54 34.8h-5.5L43 53.7l-5-18.9h-7.7l9.5 32.7h6.1l5.3-18.9 5.3 18.9h6.1l9.5-32.7h-7.7z" fill="#FFF"/>
</svg>
