<svg xmlns="http://www.w3.org/2000/svg" width="128" height="128" viewBox="0 0 128 128">
    <title>Grunt</title>
    <path fill="#493310" fill-rule="evenodd" d="M95.83 88.914c3.584-2.67 5.423-6.045 6.277-10.224 4.158 4.112 5.623 8.948 5.28 14.41-.465 7.407-3.867 12.805-10.89 15.705-.55.228-1.047.827-1.35 1.375-3.292 5.965-8.135 9.74-14.96 10.82-.572.09-1.143.415-1.635.748-8.116 5.477-21.017 5.457-29.175-.038-.535-.36-1.192-.63-1.828-.738-6.14-1.06-10.8-4.298-13.96-9.61-.92-1.547-1.99-2.587-3.64-3.344-11.85-5.406-11.65-22.932-4.24-29.038.72 1.785 1.28 3.66 2.21 5.326.94 1.68 2.25 3.153 3.4 4.717l.56-.154c.19-1.96.45-3.92.57-5.88.16-2.77.28-5.54.29-8.31.01-3.38-1.26-6.01-4.45-7.66-2.34-1.21-4.67-2.54-6.71-4.19-4.98-4.03-4.85-9.46.18-13.35 1.2-.94 1.92-2 2.06-3.51.3-3.19.8-6.36-1.48-9.16-.63-.78-.95-1.86-1.25-2.85-1.47-4.82.9-8.66 5.89-9.44 1.44-.23 2.22-.6 2.39-2.28.3-2.99-.34-5.04-3.09-6.48-2.19-1.15-4.63-1.82-7.05-2.73 2.83-4.05 7.03-5.9 11.96-6.2 6.51-.4 11.61 2.57 15.95 7.13.72.75 1.32 1.63 2.08 2.34.38.35.99.64 1.47.6.25-.02.58-.81.62-1.27.32-3.82 2.05-6.9 4.87-9.42.48-.42 1.08-.71 1.64-1.07l1.38 6.47.6-.01c.99-5.18 4.52-7.83 9.16-9.49-.1 1.55-.33 3-.24 4.44.08 1.37.49 2.73.8 4.36 2.65-1.82 4.94-3.73 7.95-3.65-.64 2.46-1.35 4.86-1.88 7.29-.28 1.25.07 2.43 1.65 2.4.58-.01 1.3-.46 1.7-.93 3.42-3.98 7.22-7.39 12.5-8.7 6.73-1.67 13.51.59 17.35 5.95-.73.18-1.42.29-2.06.51-1.67.58-3.44 1.01-4.96 1.88-3.22 1.83-3.73 3.56-2.96 7.67.07.37.66.76 1.09.92.68.25 1.45.26 2.15.47 4.11 1.21 6.07 4.61 4.9 8.72-.41 1.46-1.07 2.9-1.87 4.18-2.09 3.32-1.317 6.75-.46 10.14.19.75 1.19 1.344 1.9 1.91 4.33 3.45 4.74 8.71.59 12.39-2.32 2.05-5.12 3.583-7.83 5.124-2.49 1.416-3.96 3.48-3.97 6.21-.02 5.154.294 10.31.472 15.47zm-17.902-8.872l-.02.015c-.014.115.023.21.112.285l.313.75c1.112 2.92 2.178 5.857 3.347 8.752 1.395 3.457.43 3.33 4.852 2.93l3.656-.67c1.913-.036 2.41-.99 2.26-2.853-.365-4.52-.498-9.07-.754-13.6-.327-5.78 1.935-9.91 7.354-12.36 1.968-.89 3.84-2.26 5.368-3.8 2.324-2.34 1.663-5.89-1.174-7.52l-.244 2.01c-2.154-3.37-2.778-6.79-3.34-10.23l-.06-1.83c.09-.11.1-.22.028-.34l.88-6.65.34.05.494 2.09c.71-1.24 1.296-2.1 1.718-3.03 1.656-3.66.166-6.11-3.903-6.06-2.426.03-4.9.39-7.256.99-6.15 1.56-11.19 5.24-16.21 8.91-.5.37-1.03.71-1.54 1.06l-.24-.27 2.6-3.73.64-.75c.09-.06.14-.14.16-.24l9.74-7.8-5.92-3.16-.08.01-.43-.32c-6.84-3.2-14.11-3.86-21.44-2.98-4.02.48-7.92 1.97-11.88 3.01-2.33.9-4.55 1.98-6.06 3.65l9.73 7.91-.01-.01.35.48 2.74 3.95c-3.09-1.73-5.88-3.7-8.76-5.55-4.45-2.86-9.27-4.78-14.59-5.15-2.25-.15-4.91-.42-6.08 1.99-1.21 2.498.44 4.7 1.83 6.755.05.08.21.08.39.14l.22-1.944c.45.95.73 1.89.84 2.853.21 1.89.34 3.785.5 5.68-.37 1.79-.61 3.625-1.14 5.37-.54 1.78-1.37 3.474-2.07 5.21l-.4-.19-.11-1.783c-3.2 1.95-3.38 5.95-.31 8.41 1.86 1.48 3.98 2.67 6.09 3.783 3.97 2.1 5.78 5.46 5.72 9.78-.07 4.976-.37 9.948-.66 14.917-.15 2.67-.23 2.67 2.2 3.236l4.01.688c1.27-.11 2.92 1.07 3.69-.82 1.53-3.74 2.94-7.52 4.4-11.29.06-.09.09-.19.09-.3l.37-.79 1.48-2.83.44.156c-.67 6.64-3 12.894-5 19.4 11.11 0 21.91 0 32.72-.007.17 0 .35-.09.46-.12L75 75.76l.606-.19 2.02 4.057.26.45zm12.658 30.61c-4.08-.203-5.498.997-6.464 5.6 2.658-1.41 4.987-3 6.436-5.625l.056-.138-.028.16zm11.852-23.64c-3.496 7.167-10.123 8.803-17.02 9.59l3.292 6.276-.51 4.114c5.524-.342 10.372-2 13.49-6.758 2.905-4.432 2.778-9.332 1.236-14.32l-.488 1.1zm-77.224-.56c-.02-.117-.022-.325-.064-.334-.126-.026-.383.012-.388.05-.262 2.045-.738 4.098-.703 6.142.12 7.133 3.97 12.004 10.85 13.893 1.58.434 3.24.582 4.94.874l-.63-4.198 3.39-6.32c-7.3-.69-13.93-2.7-17.41-10.12zm57.22 24.91l.394-.724c.587-1.34 1.273-2.65 1.744-4.03 1.516-4.45-.194-6.875-4.903-7.07-.31-.012-.62-.017-.93-.017-9.83 0-19.66-.01-29.49.02-.97 0-1.97.12-2.91.34-2.92.69-4.07 2.41-3.3 5.29.5 1.88 1.39 3.65 2.1 5.48l.37.68.27.46c1.6 2.07 2.87 4.53 4.85 6.13 6.5 5.26 13.94 5.7 21.58 3.03 4.71-1.64 8.11-4.97 10.19-9.56zm19.333-99.526c-7.302-3.192-14.822-.398-19.156 7.122l2.55 1.235c3.34-4.952 7.95-8.023 13.7-7.434.82.08 1.7-.52 2.91-.93zm-75.06.31c1.085.206 2.172.596 3.255.582 3.265-.044 6.236.738 8.7 2.91 1.542 1.36 2.908 2.92 4.43 4.467l2.32-1.19c-3.91-7.18-11.964-10.333-18.705-6.768zm69.116 3.55c-.308.047-.834.084-1.335.218-2.59.693-4.17 2.517-5.12 4.884-.292.723-.452 1.907-.064 2.41.805 1.044 1.51 2.477 3.513 1.8 1.343-.454 1.697-1.23 1.884-2.352.37-2.214.72-4.432 1.13-6.96zm-63.702.1c.3 1.698.59 3.3.87 4.904.15.843.27 1.69.42 2.53.34 1.752 2.02 2.214 3.07 1.862 1.11-.37 2.49-1.8 2.6-2.883.29-2.93-3.85-6.43-6.95-6.42zm5.21 94.87c1.62 2.41 3.78 4.262 6.92 5.677-1.7-3.114-2.23-6.847-6.91-5.677z" clip-rule="evenodd"/>
    <path fill="#F5A900" fill-rule="evenodd" d="M28.444 43.37c-.163-1.895-.287-3.79-.503-5.677-.11-.96-.38-1.903-.83-2.856l-.22 1.946c-.18-.06-.34-.063-.39-.14-1.39-2.052-3.04-4.258-1.83-6.754 1.17-2.42 3.83-2.15 6.08-1.99 5.32.37 10.14 2.29 14.59 5.15 2.87 1.85 5.66 3.82 8.76 5.55l-2.74-3.95-.35-.48v.01c-.6-1.44-1.1-2.93-1.83-4.29-1.21-2.29-2.94-4.41-1.84-7.27 3.95-1.03 7.85-2.52 11.87-3 7.34-.88 14.61-.22 21.44 2.98l.43.31.08-.01c.09 2.53-.88 4.68-2.15 6.8-.76 1.26-1.12 2.76-1.66 4.16-.02.1-.07.18-.16.24l-.64.75-2.6 3.73.24.27c.52-.35 1.04-.69 1.54-1.06 5.02-3.67 10.06-7.35 16.21-8.91 2.36-.6 4.83-.96 7.26-.99 4.07-.06 5.56 2.39 3.9 6.06-.42.93-1 1.79-1.71 3.03l-.49-2.09-.34-.05-.88 6.66-.08.1.06.24.06 1.83c-.19.52-.56 1.04-.56 1.57-.04 4.26.34 8.42 3.61 12.16-2.59 1.31-4.88 2.58-7.26 3.66-2.16.97-4.4 1.85-5.17 4.33-.64 2.06-1.01 4.2-1.5 6.29l-1.2-3.31c-.35 8.09.02 16.02 2.59 23.67l-3.65.67c-2.44-3.72-4.87-7.44-7.34-11.13-.17-.26-.56-.37-.86-.55l-.31-.75.16-.22-.27-.07.03-.02-.27-.446-2.01-4.065-.61.19c1.8 6.82 3.597 13.64 5.4 20.48-.115.03-.29.117-.462.117-10.807.003-21.61.002-32.72.002 1.99-6.508 4.33-12.76 4.99-19.4l-.44-.157-1.48 2.83-.37.79c0 .11-.03.21-.09.3-.36.29-.82.51-1.064.87-1.8 2.67-3.58 5.36-5.312 8.07-.644 1.01-1.145 2.11-1.71 3.16l-4.01-.68c2.7-7.64 3.03-15.546 2.68-23.546l-1.27 3.31c-.27-5.41-1.88-9.492-7.6-11.162-2.18-.64-4.07-2.25-5.64-3.15.98-2.49 2.09-4.33 2.38-6.3.38-2.582.12-5.26.13-7.9zm41.428.406l.37-.383.905-1.048c-2.348.23-4.634.638-6.918.626-2.31-.01-4.61-.44-6.91-.68l-.48-.13.48.14.73 1.48c4.1 4.67 7.53 4.76 11.66.32.08-.08.12-.21.17-.31l-.03.02zm-22.9 24.735l4.403-2.72c.99-1.94 2.17-3.82 2.882-5.86.34-.97.525-1.51 1.586-1.79 2.33-.61 3.526-2.18 3.467-4.21l-2.333.29c-2.496-1.41-4.387-3.38-5.922-5.83-.854-1.36-2.183-2.47-3.443-3.52-2.685-2.24-6.047-2.75-9.332-2.82-2.018-.04-4.057.92-6.086 1.43-.062.06-.13.07-.204.03l-.535.23-.103.15c-.01.05.017.15.05.16.73.26 1.463.51 2.324.81-1.957 2.46-1.71 4.79-.216 7.35l.776-2.73.374.04.19 1.94.246.86.144.57c-.203 6.19 5.334 10.65 13.567 10.5l-1.83 5.18-.085.15.08-.16zm33.994 0l.146.09-.152-.08-1.766-5.24c9.595.95 13.532-5.57 13.878-11.53l.38-2.25.31.02.72 2.68c1.45-2.58 1.824-4.92-.205-7.3l2.408-.94-1.002-.39c-.49-.29-.96-.81-1.472-.85-2.21-.2-4.44-.48-6.65-.35-4.38.24-7.99 2.15-10.46 5.85-1.64 2.46-3.41 4.72-6.13 6.05l-2.52-.29c.41 2.4 1.78 3.65 3.88 4.32.5.16 1.01.7 1.25 1.19 1.06 2.1 2.01 4.24 3 6.37l4.41 2.71z" clip-rule="evenodd"/>
    <path fill="#F5A800" fill-rule="evenodd" d="M45.156 110.632c-.714-1.82-1.602-3.594-2.102-5.472-.77-2.883.377-4.603 3.295-5.288.94-.222 1.93-.335 2.91-.337 9.83-.024 19.65-.015 29.48-.014.3 0 .61.01.92.02 4.71.2 6.42 2.62 4.9 7.07-.47 1.38-1.16 2.69-1.75 4.03l-.4.73c-1.27.83-2.51 1.71-3.82 2.47-3.3 1.9-6.9 2.75-10.66 3.21-5.15.62-10.18.23-15-1.62-2.49-.95-4.78-2.41-7.16-3.65l-.28-.45-.37-.68zm35.398-2.974l.405-.728c1.12-2.9.62-3.686-2.45-3.722-2.28-.025-4.56-.044-6.83.006-2.21.048-2.7.762-2.11 2.877.26 1.11.38 2.28.83 3.3 1.14 2.61 3.22 4.07 5.05 3.76 2.5-.41 4.74-2.83 5.1-5.5l-.01.02zm-33.18-.002l-.006-.01c.417 2.773 2.093 4.48 4.67 5.314 1.817.588 3.416-.232 4.3-1.65.963-1.55 1.393-3.43 2.056-5.167.632-2.164.186-2.856-2.014-2.92-1.965-.06-3.933-.03-5.9-.013-4.222.033-4.304.135-3.49 4.065l.383.38z" clip-rule="evenodd"/>
    <path fill="#E08700" fill-rule="evenodd" d="M28.444 43.37c-.014 2.634.25 5.312-.132 7.892-.292 1.967-1.405 3.81-2.383 6.296 1.57.904 3.46 2.514 5.64 3.15 5.71 1.67 7.32 5.753 7.59 11.165l1.26-3.312c.35 8 .02 15.91-2.68 23.55-2.43-.56-2.35-.56-2.2-3.24.28-4.97.58-9.94.66-14.91.06-4.32-1.75-7.68-5.72-9.78-2.12-1.11-4.24-2.3-6.1-3.79-3.08-2.45-2.89-6.45.31-8.4l.11 1.78.4.19c.7-1.73 1.52-3.42 2.06-5.21.53-1.74.77-3.57 1.14-5.37zm61.743 48.736c-2.576-7.654-2.946-15.578-2.597-23.672l1.197 3.32c.485-2.09.854-4.235 1.496-6.294.774-2.48 3.012-3.355 5.167-4.333 2.375-1.077 4.666-2.343 7.255-3.66-3.266-3.743-3.645-7.907-3.608-12.165.004-.524.366-1.046.56-1.57.564 3.445 1.188 6.868 3.342 10.237l.24-2.01c2.83 1.62 3.5 5.18 1.17 7.52-1.53 1.53-3.4 2.9-5.37 3.79-5.42 2.45-7.69 6.58-7.36 12.36.25 4.53.39 9.08.75 13.6.15 1.86-.35 2.81-2.27 2.85zM103.32 54.2l-.052.097.077.01-.026-.108z" clip-rule="evenodd"/>
    <path fill="#E08600" fill-rule="evenodd" d="M45.804 111.767c2.378 1.23 4.668 2.693 7.153 3.646 4.82 1.848 9.845 2.24 14.996 1.62 3.766-.45 7.36-1.31 10.66-3.202 1.313-.75 2.55-1.64 3.82-2.46-2.08 4.59-5.476 7.92-10.19 9.56-7.646 2.67-15.086 2.23-21.586-3.03-1.976-1.6-3.255-4.06-4.853-6.13z" clip-rule="evenodd"/>
    <path fill="#fff" fill-rule="evenodd" d="M25.214 86.45c3.478 7.424 10.11 9.434 17.412 10.12l-3.395 6.31c-8.73-.714-14.36-7.31-14.01-16.43zm63.496 16.43l-3.29-6.28c6.895-.787 13.522-2.423 17.018-9.588.11.454.33.91.313 1.36-.25 7.506-5.4 13.826-14.04 14.505z" clip-rule="evenodd"/>
    <path fill="#C7C6C6" fill-rule="evenodd" d="M25.214 86.45c-.346 9.12 5.282 15.715 14.017 16.43l.63 4.197c-1.69-.292-3.35-.44-4.94-.874-6.88-1.888-10.73-6.76-10.86-13.893-.03-2.043.44-4.096.71-6.142.01-.04.26-.077.39-.05.05.01.05.217.07.333zm63.496 16.43c8.636-.68 13.783-7 14.042-14.506.016-.45-.204-.907-.313-1.36l.48-1.1c1.54 4.988 1.67 9.888-1.24 14.32-3.12 4.76-7.97 6.416-13.49 6.758l.51-4.113z" clip-rule="evenodd"/>
    <path fill="#F0A500" fill-rule="evenodd" d="M101.767 11.836c-1.212.405-2.098 1.007-2.913.923-5.748-.59-10.365 2.48-13.7 7.43l-2.544-1.24c4.34-7.52 11.86-10.32 19.16-7.13zm-75.06.31c6.74-3.564 14.794-.41 18.705 6.767l-2.32 1.19C41.57 18.557 40.2 17 38.66 15.64c-2.464-2.172-5.435-2.955-8.7-2.91-1.083.014-2.17-.376-3.255-.58z" clip-rule="evenodd"/>
    <path fill="#DE8500" fill-rule="evenodd" d="M95.823 15.695c-.407 2.53-.753 4.747-1.122 6.96-.18 1.123-.54 1.9-1.88 2.353-2 .677-2.71-.756-3.51-1.8-.39-.503-.23-1.687.07-2.41.95-2.367 2.53-4.19 5.12-4.884.5-.134 1.03-.17 1.34-.22zm-63.702.1c3.11-.016 7.25 3.488 6.96 6.415-.1 1.082-1.49 2.513-2.6 2.883-1.05.352-2.73-.11-3.07-1.862-.16-.84-.27-1.68-.42-2.53-.28-1.6-.56-3.2-.86-4.9z" clip-rule="evenodd"/>
    <path fill="#E08600" fill-rule="evenodd" d="M47.313 22.64c-1.1 2.863.63 4.98 1.846 7.27.72 1.368 1.22 2.855 1.83 4.29-3.21-2.602-6.41-5.205-9.73-7.91 1.5-1.664 3.72-2.744 6.05-3.65z" clip-rule="evenodd"/>
    <path fill="#DE8600" fill-rule="evenodd" d="M77.32 33.883c.542-1.395.906-2.895 1.664-4.16 1.272-2.123 2.24-4.273 2.152-6.797 2 1.065 4 2.13 5.922 3.157l-9.737 7.8zm1.013 47.21c.29.18.684.292.857.55 2.464 3.7 4.9 7.418 7.34 11.132-4.42.4-3.456.527-4.85-2.93-1.17-2.895-2.235-5.833-3.347-8.752zM41.77 92.787c.567-1.056 1.067-2.153 1.71-3.16 1.734-2.714 3.516-5.4 5.316-8.07.246-.365.705-.586 1.065-.873-1.45 3.764-2.86 7.55-4.39 11.284-.77 1.893-2.42.716-3.69.82z" clip-rule="evenodd"/>
    <path fill="#ECA200" fill-rule="evenodd" d="M37.322 110.666c4.683-1.17 5.214 2.563 6.916 5.677-3.143-1.416-5.295-3.267-6.916-5.677zm53.236-.04c-1.45 2.625-3.778 4.215-6.436 5.626.967-4.603 2.386-5.803 6.464-5.6l-.028-.025zm.028.025l.027-.16-.056.14.03.03z" clip-rule="evenodd"/>
    <path fill="#DE8600" fill-rule="evenodd" d="M77.908 80.057l.27.063-.158.222c-.09-.074-.126-.17-.112-.285z" clip-rule="evenodd"/>
    <path fill="#E08700" fill-rule="evenodd" d="M99.6 41.896l-.056-.245.083-.1c.07.12.06.24-.028.35z" clip-rule="evenodd"/>
    <path fill="#49330E" fill-rule="evenodd" d="M76.563 65.794c-.99-2.126-1.948-4.27-3-6.367-.245-.49-.75-1.026-1.247-1.184-2.105-.667-3.474-1.916-3.877-4.317l2.52.286c.47.033.96.147 1.42.085 2.2-.3 3.71-1.697 5.18-3.243 4.91-5.184 10.68-8.387 18.12-7.516l1 .393-2.41.95c2.02 2.38 1.65 4.73.2 7.31l-.72-2.67-.31-.01-.38 2.25C92 54.24 91 56.75 88.42 58.15c-3.76 2.026-7.53 2.91-11.33.22-1.626 2.46-.667 4.98-.54 7.44zm12.433-13.94v-4.628c-3.894 2.292-7.218 4.52-9.882 7.614l-1.1 1.328c3.72 2.788 10.99.954 10.982-4.314z" clip-rule="evenodd"/>
    <path fill="#49330F" fill-rule="evenodd" d="M35.24 52.833l-.145-.573-.247-.857-.19-1.932-.373-.03-.776 2.74c-1.5-2.55-1.75-4.88.21-7.34-.86-.29-1.6-.55-2.33-.81-.04-.01-.06-.11-.05-.16l.1-.15.53-.22c.07.05.14.04.2-.02 2.78.31 5.66.29 8.34.99 4.2 1.11 7.45 3.9 10.36 7.08 1.61 1.77 3.47 3.1 6.07 2.68l2.33-.28c.05 2.03-1.14 3.6-3.47 4.21-1.06.28-1.25.82-1.59 1.79-.72 2.04-1.9 3.92-2.88 5.86.25-2.49 1.09-5.02-.54-7.47-1.98 1.48-4.14 2.02-6.48 1.6-4.26-.76-7.41-3-9.12-7.08zm13.61 1.973c-2.665-3.085-5.98-5.317-9.87-7.583v4.625c.06 5.38 7.408 7.086 10.924 4.365-.105-.193-.193-.416-.334-.597-.22-.285-.478-.542-.72-.81z" clip-rule="evenodd"/>
    <path fill="#E08700" fill-rule="evenodd" d="M76.563 65.794c-.124-2.462-1.083-4.976.54-7.443 3.798 2.7 7.57 1.81 11.325-.22 2.58-1.39 3.588-3.9 4.646-6.38-.346 5.96-4.284 12.48-13.878 11.53l1.766 5.24h.005l-4.404-2.71zM35.24 52.834c1.707 4.076 4.86 6.316 9.12 7.082 2.334.42 4.493-.123 6.473-1.602 1.635 2.447.788 4.983.542 7.473L46.97 68.51l.006.006 1.83-5.184c-8.232.152-13.77-4.307-13.567-10.5z" clip-rule="evenodd"/>
    <path fill="#DE8600" fill-rule="evenodd" d="M56.977 54.212c-2.602.416-4.46-.91-6.077-2.68-2.908-3.18-6.158-5.97-10.367-7.08-2.68-.708-5.553-.688-8.34-.993 2.03-.51 4.07-1.48 6.086-1.43 3.28.07 6.64.58 9.33 2.82 1.26 1.05 2.59 2.16 3.44 3.52 1.53 2.45 3.42 4.41 5.92 5.83z" clip-rule="evenodd"/>
    <path fill="#DF8600" fill-rule="evenodd" d="M95.684 43.538c-7.44-.87-13.208 2.332-18.124 7.516-1.466 1.546-2.974 2.944-5.18 3.243-.462.063-.946-.052-1.42-.085 2.724-1.327 4.495-3.587 6.137-6.043 2.47-3.7 6.078-5.61 10.46-5.85 2.207-.12 4.44.15 6.653.35.515.05.984.56 1.474.85zm-37.63.222l-.736-1.48v.002c2.303.247 4.605.676 6.91.69 2.284.01 4.57-.397 6.918-.627l-.903 1.048-.37.383.024-.02c-2.306.387-4.606 1.02-6.92 1.08-1.63.043-3.282-.69-4.923-1.076z" clip-rule="evenodd"/>
    <path fill="#52380B" fill-rule="evenodd" d="M58.054 43.76c1.64.387 3.292 1.12 4.92 1.076 2.316-.06 4.616-.692 6.922-1.08-.058.106-.097.23-.177.316-4.13 4.448-7.56 4.355-11.67-.312z" clip-rule="evenodd"/>
    <path fill="#47310D" fill-rule="evenodd" d="M69.575 106.09c-.59-2.114-.098-2.828 2.11-2.876 2.277-.05 4.555-.03 6.83-.006 3.066.036 3.57.822 2.444 3.722l-.41.728.01-.015c-.53.576-1.05 1.167-1.6 1.726-2.5 2.53-5.24 2.37-7.4-.46-.7-.92-1.33-1.88-1.99-2.82z" clip-rule="evenodd"/>
    <path fill="#47310E" fill-rule="evenodd" d="M46.99 107.274c-.814-3.93-.732-4.033 3.49-4.065 1.967-.02 3.935-.05 5.9.01 2.2.06 2.646.76 2.014 2.92-.746 1.05-1.454 2.12-2.246 3.14-1.853 2.37-4.484 2.51-6.695.41-.704-.67-1.39-1.37-2.086-2.05l.004.01-.38-.39z" clip-rule="evenodd"/>
    <path fill="#DC8400" fill-rule="evenodd" d="M47.368 107.647c.695.682 1.382 1.373 2.086 2.044 2.21 2.11 4.842 1.96 6.695-.41.79-1.01 1.5-2.09 2.24-3.13-.67 1.74-1.09 3.62-2.06 5.17-.89 1.42-2.48 2.24-4.3 1.65-2.58-.83-4.26-2.54-4.67-5.31z" clip-rule="evenodd"/>
    <path fill="#DE8500" fill-rule="evenodd" d="M69.575 106.09c.66.942 1.292 1.906 1.99 2.82 2.16 2.83 4.9 2.995 7.4.46.55-.56 1.066-1.15 1.6-1.727-.364 2.67-2.605 5.086-5.104 5.503-1.83.307-3.91-1.148-5.05-3.755-.45-1.02-.56-2.19-.83-3.3z" clip-rule="evenodd"/>
    <path fill="#493310" fill-rule="evenodd" d="M103.32 54.2l.025.107-.077-.01z" clip-rule="evenodd"/>
    <path fill="#fff" fill-rule="evenodd" d="M79.114 54.84c2.664-3.094 5.99-5.322 9.882-7.613v4.628c-1.606 2.047-3.42 3.875-6.217 3.872-1.23-.003-2.45-.574-3.67-.886z" clip-rule="evenodd"/>
    <path fill="#C5C4C3" fill-rule="evenodd" d="M79.114 54.84c1.222.313 2.443.884 3.665.886 2.79.004 4.61-1.824 6.21-3.872.01 5.268-7.27 7.102-10.98 4.314l1.1-1.327z" clip-rule="evenodd"/>
    <path fill="#fff" fill-rule="evenodd" d="M38.98 51.847v-4.625c3.888 2.267 7.205 4.498 9.87 7.583-1.535 1.385-4.65 1.428-6.9-.117-1.116-.765-1.99-1.883-2.97-2.84z" clip-rule="evenodd"/>
    <path fill="#C5C4C3" fill-rule="evenodd" d="M38.98 51.847c.98.958 1.854 2.077 2.97 2.842 2.25 1.54 5.365 1.5 6.9.11.243.27.5.52.72.81.14.18.23.4.334.59-3.516 2.72-10.863 1.01-10.925-4.37z" clip-rule="evenodd"/>
</svg>
