<svg xmlns="http://www.w3.org/2000/svg" width="128" height="128" viewBox="0 0 128 128">
    <title>Opera</title>
    <linearGradient id="aa" x1="-554.2" x2="-552.94" y1="394.75" y2="394.75" gradientUnits="userSpaceOnUse" gradientTransform="matrix(0 97.3966 97.3966 0 -38393.648 53979.684)">
        <stop offset="0" stop-color="#ff1b2d"/>
        <stop offset=".3" stop-color="#ff1b2d"/>
        <stop offset=".61" stop-color="#ff1b2d"/>
        <stop offset="1" stop-color="#a70014"/>
    </linearGradient>
    <path fill="url(#aa)" d="M64 .6C29 .6.6 29 .6 64c0 34 26.8 61.7 60.3 63.3 1 .1 2 .1 3 .1 16.2 0 31-6.1 42.2-16.1-7.4 4.9-16.1 7.8-25.4 7.8-15.1 0-28.6-7.5-37.7-19.3-7-8.3-11.5-20.5-11.9-34.2v-3c.3-13.7 4.8-25.9 11.9-34.2C52.2 16.5 65.8 9 80.8 9c9.3 0 18 2.8 25.4 7.8C95.1 6.8 80.3.7 64.2.7c0-.1-.1-.1-.2-.1z"/>
    <linearGradient id="ba" x1="-553.68" x2="-552.42" y1="395.58" y2="395.58" gradientUnits="userSpaceOnUse" gradientTransform="matrix(0 86.1425 86.1425 0 -33990.582 47705.648)">
        <stop offset="0" stop-color="#9c0000"/>
        <stop offset=".7" stop-color="#ff4b4b"/>
        <stop offset="1" stop-color="#ff4b4b"/>
    </linearGradient>
    <path fill="url(#ba)" d="M43.1 28.3c5.8-6.9 13.3-11 21.5-11C83 17.3 98 38.2 98 64c0 25.8-15 46.7-33.4 46.7-8.2 0-15.7-4.1-21.5-11 9.1 11.8 22.6 19.3 37.7 19.3 9.3 0 18-2.8 25.4-7.8 13-11.6 21.1-28.5 21.1-47.2 0-18.8-8.2-35.6-21.1-47.2-7.4-5-16.1-7.8-25.4-7.8-15.1 0-28.6 7.5-37.7 19.3"/>
</svg>
