<svg xmlns="http://www.w3.org/2000/svg" width="128" height="128" viewBox="0 0 128 128">
    <title>Atom</title>
    <path fill="#67595D" fill-rule="evenodd" d="M38.62 66.98c-.8 1.67-1.5 3.1-2.17 4.52-3.34 7.18-6.1 14.55-7.53 22.37-.8 4.34-1.23 8.72-.1 13.1.98 3.73 3 5.66 6.48 5.82 1.52 0 3.1-.3 4.6-.7 3.9-1.1 7.3-3.3 10.6-5.6.8-.6 1.62-.9 2.62-.6 1.77.6 2.4 3 .92 4.1-5.38 4-11.08 7.4-18.05 7.7-5.8.1-9.9-2.9-11.7-8.4-1.4-4.1-1.5-8.3-1-12.5C24.8 84.3 29.6 73 35.4 62c.5-.94.5-1.7.2-2.7-1.5-4.15-2.8-8.33-4.1-12.52-.3-.78-.5-1-1.4-.8-5.7 1.22-11.3 2.74-16.3 5.72-2 1.13-3.8 2.56-5.4 4.2-2.6 2.7-2.7 5.7-.5 8.8 1.8 2.7 4.4 4.54 7.1 6.2.83.5 1.73.96 2.6 1.47 1.2.8 1.64 2.2 1 3.4-.65 1.26-2.1 1.7-3.4 1.06-3.86-1.97-7.44-4.3-10.3-7.6-1.78-2-3.07-4.3-3.5-6.97-.5-3.36.43-6.3 2.44-8.97 2.1-2.7 4.8-4.7 7.8-6.3 5.25-2.9 10.94-4.6 16.8-5.9l1.3-.4c-.26-1.53-.56-3.05-.8-4.6-.95-6.16-1.4-12.36.13-18.54.6-2.44 1.54-4.75 3.2-6.7 3.4-3.93 7.7-4.8 12.56-3.63 4.8 1.2 8.8 3.83 12.54 6.9 1.1.9 1.1 2.46.26 3.47-.9 1.06-2.3 1.2-3.5.38-1.9-1.3-3.7-2.66-5.7-3.8-2.2-1.2-4.63-2.2-7.3-2.2-2.2 0-3.96.9-5.2 2.7-1.6 2.3-2.2 4.9-2.5 7.6-.64 5.74.12 11.35 1.24 16.94.1.6.32.8.95.75 4.5-.4 9-.9 13.5-1.2 1-.1 1.6-.4 2.2-1.2 5.87-7.4 12.3-14.3 19.87-20 4.2-3.2 8.7-5.94 13.8-7.5 3.2-.9 6.4-1.3 9.7-.13 4 1.4 6.3 4.5 7.4 8.45 1.2 4.2 1 8.5.5 12.8-.1 1.1-.3 2.2-.5 3.3-.3 1.44-1.4 2.22-2.9 2.1-1.35-.2-2.2-1.28-2.08-2.78.2-2.08.64-4.1.66-6.2.02-2.44 0-4.94-.54-7.3-1.05-4.94-4.46-6.87-9.5-5.76-3.8.9-7.14 2.7-10.3 4.8C71 23.6 65.4 29 60.2 34.9c-.95 1.1-1.9 2.2-2.8 3.3-.08.1-.08.2-.15.5h1.35c13.4.14 26.6 1.73 39.5 5.44 6.15 1.8 12.1 4.1 17.53 7.5 2.9 1.8 5.58 3.9 7.7 6.6 4.3 5.54 3.97 11.8-1 16.76-3.3 3.4-7.4 5.5-11.8 7.16-1.24.5-2.6-.2-3.1-1.4-.5-1.3.06-2.64 1.4-3.3 2-.96 4.1-1.8 6-3 1.6-.93 3.1-2.13 4.35-3.5 2.67-2.82 2.77-5.93.5-9.12-1.7-2.4-4-4.1-6.44-5.6-6.04-3.75-12.7-6.1-19.53-7.9-7.1-1.9-14.4-3.23-21.7-3.75-5.9-.4-11.7-.5-17.6-.8-.8-.1-1.4.2-1.9.9C49 50 45.6 55.2 42.1 60.6c-.25.4-.36 1.1-.2 1.5 5.8 13.8 13.17 26.7 22.9 38.17 4.1 4.8 8.58 9.26 14 12.63 2.54 1.6 5.2 2.9 8.27 3.1 2.8.2 4.8-.9 6.2-3.3 1.3-2.2 1.82-4.7 2.05-7.2.75-8.2-.87-16.05-3-23.9-2.2-8-5.3-15.62-8.88-23.1-.3-.6-.53-1.34-.5-2 .06-1.17 1-2 2.15-2.2 1-.15 2.1.4 2.6 1.5 1.3 2.74 2.6 5.46 3.7 8.24 3.6 8.6 6.5 17.38 8 26.58 1.1 6.4 1.6 12.85.1 19.3-.3 1.42-.8 2.85-1.4 4.2-2.5 5.52-7.6 8-13.6 6.7-4.8-1.06-8.9-3.6-12.7-6.6-7-5.54-12.7-12.3-17.8-19.53-5.8-8.3-10.8-17-14.9-26.3l-.6-1.3zM36.1 45.03l3.2 10.16 7.4-11.4L36.1 45zm28.37 26.24c-4.02 0-7.3-3.26-7.28-7.25 0-4.05 3.2-7.28 7.3-7.28 4 0 7.2 3.25 7.3 7.25 0 4-3.3 7.2-7.4 7.2z" clip-rule="evenodd"/>
</svg>
