<svg xmlns="http://www.w3.org/2000/svg" width="128" height="128" viewBox="0 0 128 128">
    <title>PHP</title>
    <path fill="#6181B6" d="M64 33.04C30.26 33.04 2.9 46.9 2.9 64S30.27 94.96 64 94.96 125.1 81.1 125.1 64 97.73 33.04 64 33.04zm-15.9 37c-1.45 1.36-3.07 1.92-4.86 2.5-1.78.58-4.05.46-6.8.46h-6.26l-1.73 10h-7.3l6.5-34H41.7c4.22 0 7.3 1.22 9.24 3.43 1.94 2.22 2.52 5.37 1.75 9.34-.34 1.64-.88 3.16-1.63 4.5-.76 1.37-1.75 2.64-2.98 3.76zM69.4 73l2.9-14.42c.32-1.7.2-2.94-.37-3.55-.57-.62-1.78-1.03-3.63-1.03h-5.8l-3.7 19h-7.25l6.52-33h7.24l-1.73 9H70c4.07 0 6.87.82 8.42 2.23s2 3.36 1.38 6.53L76.77 73H69.4zm40.27-11.18c-.3 1.64-.85 3.14-1.6 4.5-.77 1.35-1.76 2.6-2.98 3.7-1.48 1.38-3.1 1.94-4.88 2.52-1.78.58-4.05.46-6.8.46h-6.27l-1.73 10h-7.3l6.52-34h14.04c4.2 0 7.3 1.22 9.23 3.43 1.94 2.22 2.5 5.42 1.75 9.4zM95.92 54h-5L88.2 68h4.43c2.94 0 5.14-.3 6.58-1.4 1.46-1.1 2.43-2.83 2.94-5.42.48-2.5.26-4.44-.66-5.46-.93-1.02-2.78-1.72-5.55-1.72zm-57 0h-5L31.2 68h4.45c2.94 0 5.13-.3 6.57-1.4 1.44-1.1 2.42-2.83 2.92-5.42.48-2.5.26-4.44-.66-5.46S41.7 54 38.93 54z"/>
</svg>
