<svg xmlns="http://www.w3.org/2000/svg" width="128" height="128" viewBox="0 0 128 128">
    <title>Gulp</title>
    <path fill="#EB4A4B" d="M88.63 1.46c-.12.1-3.59 3.69-7.69 8l-7.43 7.84-3 11.6-8.3.15c-15.44.32-24.56 1.56-26.25 3.57-.32.37-.27.5.3 1 4 3.47 35.94 4.49 50.69 1.63 5.23-1 6.57-2.28 3.72-3.49-2.16-.94-10.07-2.23-13.61-2.23-1 0-1.19-.08-1.19-.44s.54-2.5 1.19-5l1.17-4.61 6.94-7.34c3.82-4 7-7.54 7-7.73.28-1.16-2.67-3.54-3.54-2.95zm-52.4 34.36c0 .75 3 29 3.15 29.39 0 .2.3-.17.54-.89 2.2-6.17 6.59-11.4 10.31-12.27a4.51 4.51 0 0 1 4.64 1.49c1.61 1.61 1.91 3.35.67 4-.62.32-1.21-.12-2-1.56-1.71-3-4.88-1.44-8.3 4.26-3.62 6-4.56 12.64-1.81 12.64 1 0 3.47-1.94 5.18-4.06a11.7 11.7 0 0 0 2.26-4.22A10.26 10.26 0 0 1 52 62a1.63 1.63 0 0 1 1-.2c.64.08.69.17.77 1.24a8.73 8.73 0 0 1-.69 3.35c-.72 2-1.53 4.64-3.07 9.74a13.09 13.09 0 0 1-1 2.65c-.54.77-1.31.72-1.66-.08-.25-.52-.17-1.07.52-3.39.45-1.53.89-3 1-3.27s-.5.1-1.56 1.09c-2.48 2.3-4.91 3.27-6.35 2.5-.42-.22-.47-.17-.47.42 0 1.88 1.78 18.79 2 19.06.75.89 6 2.4 11.38 3.25a102.24 102.24 0 0 0 19.83 0 59.24 59.24 0 0 0 9.22-2.16c2.63-1 2.3.1 3.79-12.77C87.39 77.16 88 72 87.91 72a9.93 9.93 0 0 0-1.76 1.31c-2 1.69-3.3 2.33-4.76 2.36-1.31 0-2-.32-2.28-1.14s.12-1.88 2-4.22c2.11-2.6 2.45-3.1 2.45-3.62 0-1.11-2.55 0-4 1.84-.47.59-1.17 1.56-1.53 2.16A70.73 70.73 0 0 0 73.91 80c-.84 2.4-1.63 3.52-2.45 3.52-.47 0-1.27-.59-1.27-.94 0-.65.79-2.65 2.26-5.85.94-2 1.71-3.74 1.71-3.79a5.3 5.3 0 0 0-1.07.75 7.46 7.46 0 0 1-3.94 1.91c-.94 0-1.94-.59-1.94-1.14s0-.47-1.51.4c-2.35 1.31-3.7.84-3.7-1.32v-1l-1 1.07c-1.86 1.91-4.39 2.58-5.77 1.49-.89-.69-.87-2.33.08-5.16 1.71-5.06 3-7 4.19-6.29.72.45.59 1.17-.54 3.52-2 4-2.08 5.95-.35 5.45s3.64-3.07 5-6.54a10.13 10.13 0 0 1 1.07-2.18.92.92 0 0 1 1.64.35c.17.52 0 1.21-1 3.59a13.58 13.58 0 0 0-1.21 4.06c0 1.07 0 1.11.69 1.07a3.65 3.65 0 0 0 2.53-1.69c.77-2.5 6.49-16.48 6.94-17s.69-.57 1.27-.35a1.09 1.09 0 0 1 .77.77 11.81 11.81 0 0 1-1 3.1c-2.43 5.63-5.6 13.76-5.6 14.38 0 .4.12.69.25.69.59 0 2.23-1 4-2.55 1.59-1.39 2-1.84 2.3-3 .94-2.88 1.63-3.69 2.65-3.15.4.22.47.45.37 1.11-.08.47-.08.84 0 .84a7 7 0 0 0 1.24-1c1.91-1.65 3.48-2.12 5-1.12.69.42.79.62.79 1.56 0 1.29-1 3-3.07 5.5a9.16 9.16 0 0 0-1.39 1.88c0 .12.25.22.57.22.54 0 4.71-3.2 5.63-4.31.27-.35.84-4.91 2.16-17 1-9.07 1.76-16.53 1.71-16.56a6.35 6.35 0 0 0-1.44.42 61.25 61.25 0 0 1-11.16 1.91 276.1 276.1 0 0 1-29.32.12 71.6 71.6 0 0 1-11.95-1.91l-1.81-.57v.56zm7.44 61.49s.79 1.44 1.74 3.07l1.76 3 .72 10 .75 10 .75.64c1.86 1.59 6.32 2.48 13.26 2.63 7.88.17 14-.82 16-2.63l.79-.69.56-10.1.57-10 1.61-2.83a32.41 32.41 0 0 0 1.61-3 5.23 5.23 0 0 0-1.69.42c-3.35 1.14-9.87 2.16-15.66 2.48C60 100.63 50 99.42 45 97.66a4.92 4.92 0 0 0-1.31-.35z"/>
</svg>
