<svg xmlns="http://www.w3.org/2000/svg" width="128" height="128" viewBox="0 0 128 128">
    <title>Bitbucket</title>
    <path fill="#205081" d="M64 1.02c-30 0-54.56 8.08-54.56 18.1 0 2.64 6.55 40.5 9.15 55.52 1.14 6.74 18.54 16.6 45.37 16.6l.02-.07v.08c27 0 44.23-9.87 45.4-16.6 2.6-15.03 9.14-52.9 9.14-55.53C118.54 9.1 94 1.02 64 1.02zm0 78.06c-9.58 0-17.34-7.76-17.34-17.34S54.42 44.4 64 44.4s17.34 7.76 17.34 17.34S73.58 79.08 64 79.08zm0-54.36c-19.3-.03-34.94-3.4-34.94-7.5S44.72 9.82 64 9.86c19.3.03 34.95 3.38 34.94 7.5 0 4.1-15.65 7.4-34.95 7.37z"/>
    <path fill="#205081" d="M103.2 89.7c-.82 0-1.48.58-1.48.58S88.28 100.92 64 100.92 26.28 90.28 26.28 90.28s-.66-.6-1.5-.6c-.98 0-1.92.68-1.92 2.15 0 .15 0 .3.04.46 2.1 11.14 3.6 19.07 3.88 20.27C28.6 120.77 44.66 127 64 127s35.4-6.2 37.22-14.42c.27-1.2 1.8-9.13 3.88-20.3.03-.14.04-.3.04-.45 0-1.47-.94-2.14-1.93-2.14z"/>
    <circle fill="#205081" cx="63.98" cy="61.74" r="8.69"/>
</svg>
