<svg xmlns="http://www.w3.org/2000/svg" width="128" height="128" viewBox="0 0 128 128">
    <title>Chrome</title>
    <circle cx="64.15" cy="64.24" r="61" fill="#fff"/>
    <path fill-opacity=".1" d="M102.97 75.33c0-21.44-17.38-38.82-38.82-38.82S25.33 53.9 25.33 75.36h11.1c0-15.32 12.4-27.73 27.72-27.73 15.3 0 27.73 12.4 27.73 27.74"/>
    <circle cx="66.92" cy="72" r="21.07" fill-opacity=".1"/>
    <linearGradient id="ab" x1="395.19" x2="395.19" y1="484.17" y2="484.72" gradientUnits="userSpaceOnUse" gradientTransform="matrix(82 0 0 82 -32341.5 -39660.31)">
        <stop offset="0" stop-color="#81B4E0"/>
        <stop offset="1" stop-color="#0C5A94"/>
    </linearGradient>
    <circle cx="64.15" cy="64.23" r="22.74" fill="url(#ab)"/>
    <linearGradient id="bb" x1="-608.91" x2="-608.91" y1="-597.65" y2="-547.18" gradientUnits="userSpaceOnUse" gradientTransform="translate(675 599.77)">
        <stop offset="0" stop-color="#F06B59"/>
        <stop offset="1" stop-color="#DF2227"/>
    </linearGradient>
    <path fill="url(#bb)" d="M119.6 36.5C104.34 5.8 67.06-6.72 36.34 8.54c-9.57 4.76-17.76 11.9-23.76 20.76l24.95 43.25c-4.6-14.6 3.52-30.17 18.13-34.77 2.57-.8 5.24-1.24 7.93-1.27"/>
    <linearGradient id="cb" x1="-657.84" x2="-632.33" y1="-491.39" y2="-533.54" gradientUnits="userSpaceOnUse" gradientTransform="translate(675 599.77)">
        <stop offset="0" stop-color="#388B41"/>
        <stop offset="1" stop-color="#4CB749"/>
    </linearGradient>
    <path fill="url(#cb)" d="M12.58 29.3c-19.1 28.5-11.5 67.07 17 86.17 8.82 5.9 19 9.46 29.58 10.32l26.06-44.4C75.48 93.22 58 94.9 46.2 85.17c-4.02-3.3-7.02-7.68-8.67-12.62"/>
    <linearGradient id="db" x1="-572.38" x2="-599.56" y1="-486.91" y2="-552.35" gradientUnits="userSpaceOnUse" gradientTransform="translate(675 599.77)">
        <stop offset="0" stop-color="#E4B022"/>
        <stop offset=".3" stop-color="#FCD209"/>
    </linearGradient>
    <path fill="url(#db)" d="M59.16 125.8c34.2 2.58 64.03-23.06 66.6-57.26.84-11.04-1.28-22.1-6.16-32.03h-56c15.3.1 27.66 12.57 27.6 27.88-.04 6.2-2.14 12.2-5.98 17.07"/>
    <linearGradient id="eb" x1="-649.39" x2="-649.39" y1="-528.88" y2="-573.25" gradientUnits="userSpaceOnUse" gradientTransform="translate(675 599.77)">
        <stop offset="0" stop-opacity=".15"/>
        <stop offset=".3" stop-opacity=".06"/>
        <stop offset="1" stop-opacity=".03"/>
    </linearGradient>
    <path fill="url(#eb)" d="M12.58 29.3l24.95 43.25c-1.85-6.22-1.45-12.9 1.1-18.85L13.7 27.64"/>
    <linearGradient id="fb" x1="-588.16" x2="-618.66" y1="-514.56" y2="-483.5" gradientUnits="userSpaceOnUse" gradientTransform="translate(675 599.77)">
        <stop offset="0" stop-opacity=".15"/>
        <stop offset=".3" stop-opacity=".06"/>
        <stop offset="1" stop-opacity=".03"/>
    </linearGradient>
    <path fill="url(#fb)" d="M59.16 125.8l26.06-44.37c-4.1 4.9-9.8 8.23-16.08 9.42l-11.1 34.94"/>
    <linearGradient id="gb" x1="-588.6" x2="-584.16" y1="-505.62" y2="-549.43" gradientUnits="userSpaceOnUse" gradientTransform="translate(675 599.77)">
        <stop offset="0" stop-opacity=".15"/>
        <stop offset=".3" stop-opacity=".06"/>
        <stop offset="1" stop-opacity=".03"/>
    </linearGradient>
    <path fill="url(#gb)" d="M119.6 36.5h-56c8.43.05 16.4 3.93 21.62 10.55l35.5-8.88"/>
</svg>
