<svg xmlns="http://www.w3.org/2000/svg" width="128" height="128" viewBox="0 0 128 128">
    <title>CSS3</title>
    <path fill="#1572B6" d="M18.8 114.12L8.77 1.35h110.48L109.18 114.1l-45.25 12.55-45.12-12.53z"/>
    <path fill="#33A9DC" d="M64 117.06l36.56-10.13 8.6-96.36H64v106.5z"/>
    <path fill="#fff" d="M64 51.43h18.3l1.27-14.16H64V23.44h34.68l-.33 3.7-3.4 38.12H64V51.43z"/>
    <path fill="#EBEBEB" d="M64.08 87.35l-.06.02-15.4-4.16-1-11H33.76l1.94 21.7L64 101.8l.06-.02v-14.4z"/>
    <path fill="#fff" d="M81.13 64.67L79.46 83.2l-15.42 4.16v14.4L92.4 93.9l.2-2.35 2.4-26.9H81.12z"/>
    <path fill="#EBEBEB" d="M64.05 23.43v13.84h-33.4l-.3-3.1-.62-7.02-.33-3.7h34.65zm-.05 28v13.83H48.8l-.28-3.1-.64-7.02-.33-3.7H64z"/>
</svg>
