<svg xmlns="http://www.w3.org/2000/svg" width="128" height="128" viewBox="0 0 128 128">
    <title>Github</title>
    <path fill-rule="evenodd" fill="#000" d="M64 5.1C30.65 5.1 3.6 32.14 3.6 65.5c0 26.67 17.32 49.3 41.3 57.3 3.03.55 4.13-1.32 4.13-2.9 0-1.45-.05-6.2-.08-11.25-16.8 3.65-20.34-7.13-20.34-7.13-2.7-6.98-6.7-8.83-6.7-8.83-5.4-3.8.5-3.7.5-3.7 6.1.4 9.3 6.2 9.3 6.2 5.4 9.2 14.17 6.5 17.6 5 .57-3.9 2.1-6.6 3.86-8.1-13.4-1.5-27.5-6.7-27.5-29.9 0-6.6 2.35-12 6.2-16.2-.62-1.56-2.7-7.7.6-16 0 0 5.06-1.6 16.6 6.2 4.8-1.37 10-2 15.1-2.07 5.15.02 10.3.7 15.15 2.03 11.5-7.8 16.6-6.2 16.6-6.2 3.27 8.32 1.2 14.47.58 16 3.9 4.22 6.24 9.6 6.24 16.2 0 23.2-14.12 28.3-27.6 29.8 2.2 1.87 4.1 5.54 4.1 11.2 0 8.1-.04 14.6-.04 16.56 0 1.6 1.1 3.5 4.17 2.9 24-8 41.28-30.6 41.28-57.3C124.4 32.12 97.4 5.1 64 5.1z" clip-rule="evenodd"/>
    <path fill="#000" d="M26.48 91.8c-.13.3-.6.4-1.03.2-.44-.2-.7-.6-.54-.92.2-.3.6-.4 1.1-.18.5.2.7.6.6.9zm2.46 2.73c-.3.27-.86.15-1.24-.28-.4-.42-.47-.98-.18-1.25.3-.27.85-.14 1.24.28.4.43.47.98.17 1.26zM31.3 98c-.35.28-.95.04-1.33-.5-.37-.54-.37-1.2 0-1.44.4-.26.98-.02 1.36.5.37.55.37 1.2 0 1.46zm3.28 3.38c-.33.37-1.03.27-1.55-.23-.53-.48-.67-1.18-.34-1.54.3-.3 1-.2 1.5.3s.7 1.2.3 1.6zm4.5 1.95c-.14.48-.82.7-1.5.5-.7-.22-1.14-.77-1-1.25.14-.47.83-.7 1.52-.48.67.2 1.1.74.97 1.22zm4.95.37c0 .48-.57.9-1.28.9-.73.02-1.3-.38-1.32-.87 0-.5.57-.9 1.3-.93.7 0 1.3.4 1.3.88zm4.6-.8c.08.5-.42 1-1.13 1.12-.7.13-1.36-.17-1.45-.65-.1-.5.42-1 1.12-1.13.7-.12 1.35.17 1.44.66zm0 0"/>
</svg>
