<svg xmlns="http://www.w3.org/2000/svg" width="128" height="128" viewBox="0 0 128 128">
    <title>Git</title>
    <path fill="#F34F29" d="M124.74 58.38L69.62 3.26C66.45.1 61.3.1 58.12 3.26L46.68 14.7 61.2 29.24c3.37-1.14 7.24-.38 9.93 2.3 2.7 2.72 3.46 6.62 2.3 10l14 14c3.37-1.17 7.28-.4 9.98 2.3 3.8 3.77 3.8 9.9 0 13.67-3.73 3.8-9.9 3.8-13.63 0-2.85-2.8-3.55-7-2.1-10.5l-13.1-13.06v34.34c.93.46 1.8 1.07 2.57 1.83 3.78 3.78 3.78 9.9 0 13.7-3.78 3.76-9.9 3.76-13.68-.02-3.78-3.78-3.78-9.9 0-13.68.94-.95 2.02-1.66 3.17-2.1V47.3c-1.13-.47-2.2-1.17-3.15-2.1-2.86-2.87-3.55-7.07-2.08-10.58L41.1 20.3 3.3 58.1C.1 61.3.1 66.44 3.26 69.62l55.1 55.1c3.18 3.18 8.33 3.18 11.5 0l54.87-54.85c3.17-3.18 3.17-8.33 0-11.5z"/>
</svg>
