<svg xmlns="http://www.w3.org/2000/svg" width="128" height="128" viewBox="0 0 128 128">
    <title>SourceTree</title>
    <path fill="#205081" d="M64 .73C29.1.73.73 29.1.73 64S29.1 127.27 64 127.27c34.9 0 63.27-28.38 63.27-63.27S98.9.73 64 .73zm3.33 120.17v-11L94.77 96a1.96 1.96 0 0 0 1.08-1.73v-6.3a5.98 5.98 0 0 0 4-6.25 5.98 5.98 0 1 0-11.9 1.22 5.97 5.97 0 0 0 4 5.03v5.1l-24.6 12.45V95.3l10.83-5.02a1.96 1.96 0 0 0 1.13-1.77l.05-17L99.4 60.2c.62-.34 1-1 1-1.7v-4.74a5.97 5.97 0 0 0-2.57-11.6 5.97 5.97 0 0 0-1.34 11.6v3.6l-20.1 11.3c-.63.34-1 1-1 1.7l-.03 16.9L67.33 91V54.2l16.9-8.26a1.95 1.95 0 0 0 1.08-1.75v-6.3a5.98 5.98 0 0 0 4-6.28 5.98 5.98 0 0 0-6.54-5.33 5.97 5.97 0 0 0-5.33 6.56 5.96 5.96 0 0 0 4 5.03v5.06l-14.07 6.87V28.6a5.98 5.98 0 1 0-7.9-5.03 5.97 5.97 0 0 0 4 5.03v34.64l-9.95-5.22V42.28a1.95 1.95 0 0 0-.76-1.55l-6.8-5.2a5.98 5.98 0 1 0-2.6 2.92l6.26 4.8V59.2c0 .73.4 1.4 1.04 1.73l12.82 6.73V80.4L42.1 70.5l.3-7.74a1.96 1.96 0 0 0-1.08-1.8l-9.8-5.04c.15-.63.2-1.3.13-1.97a5.98 5.98 0 0 0-11.88 1.23 5.98 5.98 0 0 0 6.56 5.33 5.9 5.9 0 0 0 3.1-1.24l9 4.62-.3 7.8c-.02.8.43 1.52 1.14 1.85l24.2 11.2v9.08a1.98 1.98 0 0 0 0 .53V121a57.53 57.53 0 0 1-6.1-.4V97.67c0-.77-.44-1.46-1.13-1.78l-15.2-7a5.97 5.97 0 0 0-6.56-6.5 5.98 5.98 0 1 0 4.93 10.05l14 6.44V120C27.04 115.03 7 91.8 7 64 7 32.57 32.56 7 64 7s57 25.57 57 57c0 30.32-23.78 55.17-53.67 56.9z"/>
</svg>
