<svg xmlns="http://www.w3.org/2000/svg" width="128" height="128" viewBox="0 0 128 128">
    <title>HTML5</title>
    <path fill="#E44D26" d="M19.04 113.88L9.04 1.66h109.93l-10.02 112.2-45.02 12.48z"/>
    <path fill="#F16529" d="M64 116.8l36.38-10.1 8.56-95.86H64z"/>
    <path fill="#EBEBEB" d="M64 52.45H45.8l-1.27-14.1H64V24.6H29.5l.32 3.7 3.38 37.9H64zm0 35.75h-.06L48.6 84.08l-.97-10.97h-13.8l1.9 21.6 28.2 7.84H64z"/>
    <path fill="#fff" d="M63.95 52.45v13.77H80.9l-1.6 17.85-15.35 4.14v14.34l28.22-7.82.2-2.32 3.24-36.23.35-3.7h-3.7zm0-27.85v13.76H97.2l.27-3.1.63-6.97.33-3.7z"/>
</svg>
