<svg xmlns="http://www.w3.org/2000/svg" width="456" height="317" viewBox="0 0 456 317">
  <path fill="#5951FF" d="M239.42 92.43c-1.42-2.83-5.67-4.24-6.42-3.53-4.24 2.83-.69 9.19-.69 14.85-8.49-1.4-11.33-9.88-17.7-14.83-2.11 6.37.73 13.43-1.39 19.8l-3.54-3.53a19.14 19.14 0 0 0-2.12 1.08l66.62 154.53 37.5-37.6-60.89-141.35c-4.09-3.19-8.27-6.23-13.52-7.1.73 6.36 2.85 11.31 2.15 17.68z"/>
  <path fill="#5951FF" d="M443 151.5c-4 4-4 9-8 13-3-5-3-11-6-15a173.83 173.83 0 0 1-13 15c0-4-2-9-3-13-4 5-5 12-9 17-1-5-1-10-3-15-1.29 3.87-2.58 7.32-4.14 10.89-3.81 46.78-40.41 97.69-114.09 97.69h-51.64l-20.86 51.28h74.61c94.91 0 162.08-58.11 166.7-148a9.36 9.36 0 0 1-2.58-.86c-4-2-5-8-6-13z"/>
  <path fill="#5951FF" d="M381.37 45.18L331 64.45c29 50.2 12.45 101.66-19.08 130.67q-3 2.73-6.21 5.25c3.68-1.27 7.1-2.66 10.82-4.33-2.33 4.86-6 8.24-9 12.36 6.39-.44 12.22-4.44 18.6-4.89-2.27 3.44-4.59 8.3-7.54 11a173.83 173.83 0 0 0 19.84-.59c-.91 4.92-5.33 9-7 14.57 5.65.24 9.33-3.15 15-2.91-3 4.12-6.74 8.92-5.51 13.22a9.36 9.36 0 0 0 1.08 2.5q3.8-3.15 7.52-6.56C406.85 182 416.9 109.69 381.37 45.18zM226 159.5v-5c-6 3-9 10-15 13-1-8 3-16-2-23-4 4-6 11-11 10-1 0-3-4-2-7-5 4-7 9-11 14-3.09-4.33-3.89-9.43-4.52-14.58l-31.4 78.69L85.17 65.46c-4.07-1.71-6.91-6-10.17-10-1 6 0 12-2 18-7-2-7-11-13-14 1 4-1 9-1 13-5-5-10-9-11-16-3 4-2 9-4 13-2-5-5-10-5-16-3 5-4 11-5 17a9.48 9.48 0 0 1-4.2-2.28l97.72 244.88h39.74l61-152.85a19.14 19.14 0 0 1-2.26-.71zM72.34 296.4c5.58 2.19 11.34 1.23 16.72 1.2-3-3.32-8-4.22-10.64-8.48 6.88 1.63 12.43-1.56 18.91-4.39-3.72-1.46-7.64-5.15-11.73-5.69 5-4.49 13.36-1.19 17.78-7-4.85-4.06-10.8-5.32-16-8.45 4.83-1.6 9.9-2.66 13-5.82l-66.23.35-20.67 52.58 69.2-.36a9.48 9.48 0 0 0 3.66-3.07c-5.22-3.13-10.44-6.27-14-10.87z"/>
</svg>
